<?xml version="1.0" encoding="utf-8"?>
<!-- Generator: Adobe Illustrator 24.0.2, SVG Export Plug-In . SVG Version: 6.00 Build 0)  -->
<svg version="1.1" id="Layer_1" xmlns="http://www.w3.org/2000/svg" xmlns:xlink="http://www.w3.org/1999/xlink" x="0px" y="0px"
	 viewBox="0 0 500 500" style="enable-background:new 0 0 500 500;" xml:space="preserve">
<style type="text/css">
	.st0{fill:#FFFFFF;stroke:#00CC99;stroke-miterlimit:10;}
</style>
<rect x="0.5" y="0.5" class="st0" width="62.4" height="62.4"/>
<rect x="62.9" y="0.5" class="st0" width="62.4" height="62.4"/>
<rect x="125.3" y="0.5" class="st0" width="62.4" height="62.4"/>
<rect x="187.6" y="0.5" class="st0" width="62.4" height="62.4"/>
<rect x="250" y="0.5" class="st0" width="62.4" height="62.4"/>
<rect x="312.4" y="0.5" class="st0" width="62.4" height="62.4"/>
<rect x="374.8" y="0.5" class="st0" width="62.4" height="62.4"/>
<rect x="437.1" y="0.5" class="st0" width="62.4" height="62.4"/>
<rect x="0.5" y="62.9" class="st0" width="62.4" height="62.4"/>
<rect x="62.9" y="62.9" class="st0" width="62.4" height="62.4"/>
<rect x="125.3" y="62.9" class="st0" width="62.4" height="62.4"/>
<rect x="187.6" y="62.9" class="st0" width="62.4" height="62.4"/>
<rect x="250" y="62.9" class="st0" width="62.4" height="62.4"/>
<rect x="312.4" y="62.9" class="st0" width="62.4" height="62.4"/>
<rect x="374.8" y="62.9" class="st0" width="62.4" height="62.4"/>
<rect x="437.1" y="62.9" class="st0" width="62.4" height="62.4"/>
<rect x="0.5" y="125.3" class="st0" width="62.4" height="62.4"/>
<rect x="62.9" y="125.3" class="st0" width="62.4" height="62.4"/>
<rect x="125.3" y="125.3" class="st0" width="62.4" height="62.4"/>
<rect x="187.6" y="125.3" class="st0" width="62.4" height="62.4"/>
<rect x="250" y="125.3" class="st0" width="62.4" height="62.4"/>
<rect x="312.4" y="125.3" class="st0" width="62.4" height="62.4"/>
<rect x="374.8" y="125.3" class="st0" width="62.4" height="62.4"/>
<rect x="437.1" y="125.3" class="st0" width="62.4" height="62.4"/>
<rect x="0.5" y="187.6" class="st0" width="62.4" height="62.4"/>
<rect x="62.9" y="187.6" class="st0" width="62.4" height="62.4"/>
<rect x="125.3" y="187.6" class="st0" width="62.4" height="62.4"/>
<rect x="187.6" y="187.6" class="st0" width="62.4" height="62.4"/>
<rect x="250" y="187.6" class="st0" width="62.4" height="62.4"/>
<rect x="312.4" y="187.6" class="st0" width="62.4" height="62.4"/>
<rect x="374.8" y="187.6" class="st0" width="62.4" height="62.4"/>
<rect x="437.1" y="187.6" class="st0" width="62.4" height="62.4"/>
<rect x="0.5" y="250" class="st0" width="62.4" height="62.4"/>
<rect x="62.9" y="250" class="st0" width="62.4" height="62.4"/>
<rect x="125.3" y="250" class="st0" width="62.4" height="62.4"/>
<rect x="187.6" y="250" class="st0" width="62.4" height="62.4"/>
<rect x="250" y="250" class="st0" width="62.4" height="62.4"/>
<rect x="312.4" y="250" class="st0" width="62.4" height="62.4"/>
<rect x="374.8" y="250" class="st0" width="62.4" height="62.4"/>
<rect x="437.1" y="250" class="st0" width="62.4" height="62.4"/>
<rect x="0.5" y="312.4" class="st0" width="62.4" height="62.4"/>
<rect x="62.9" y="312.4" class="st0" width="62.4" height="62.4"/>
<rect x="125.3" y="312.4" class="st0" width="62.4" height="62.4"/>
<rect x="187.6" y="312.4" class="st0" width="62.4" height="62.4"/>
<rect x="250" y="312.4" class="st0" width="62.4" height="62.4"/>
<rect x="312.4" y="312.4" class="st0" width="62.4" height="62.4"/>
<rect x="374.8" y="312.4" class="st0" width="62.4" height="62.4"/>
<rect x="437.1" y="312.4" class="st0" width="62.4" height="62.4"/>
<rect x="0.5" y="374.8" class="st0" width="62.4" height="62.4"/>
<rect x="62.9" y="374.8" class="st0" width="62.4" height="62.4"/>
<rect x="125.3" y="374.8" class="st0" width="62.4" height="62.4"/>
<rect x="187.6" y="374.8" class="st0" width="62.4" height="62.4"/>
<rect x="250" y="374.8" class="st0" width="62.4" height="62.4"/>
<rect x="312.4" y="374.8" class="st0" width="62.4" height="62.4"/>
<rect x="374.8" y="374.8" class="st0" width="62.4" height="62.4"/>
<rect x="437.1" y="374.8" class="st0" width="62.4" height="62.4"/>
<rect x="0.5" y="437.1" class="st0" width="62.4" height="62.4"/>
<rect x="62.9" y="437.1" class="st0" width="62.4" height="62.4"/>
<rect x="125.3" y="437.1" class="st0" width="62.4" height="62.4"/>
<rect x="187.6" y="437.1" class="st0" width="62.4" height="62.4"/>
<rect x="250" y="437.1" class="st0" width="62.4" height="62.4"/>
<rect x="312.4" y="437.1" class="st0" width="62.4" height="62.4"/>
<rect x="374.8" y="437.1" class="st0" width="62.4" height="62.4"/>
<rect x="437.1" y="437.1" class="st0" width="62.4" height="62.4"/>
</svg>
